<svg width="100" height="125" viewBox="0 0 100 125" fill="none" xmlns="http://www.w3.org/2000/svg">
<path d="M12.2503 0H-0.170589V12.4235H12.2503V0Z" fill="#FF5100"/>
<path d="M24.6714 0H12.2505V12.4235H24.6714V0Z" fill="#FF7416"/>
<path d="M61.922 0H49.5011V12.4235H61.922V0Z" fill="#FF7416"/>
<path d="M74.343 0H61.9222V12.4235H74.343V0Z" fill="#FF7416"/>
<path d="M12.2503 12.4239H-0.170589V24.8474H12.2503V12.4239Z" fill="#FF7416"/>
<path d="M24.6714 12.4239H12.2505V24.8474H24.6714V12.4239Z" fill="#FF7416"/>
<path d="M24.6714 24.8477H12.2505V37.2712H24.6714V24.8477Z" fill="#FFA727"/>
<path d="M37.0925 24.8477H24.6716V37.2712H37.0925V24.8477Z" fill="#FFA727"/>
<path d="M49.5127 24.8477H37.0918V37.2712H49.5127V24.8477Z" fill="#FFA727"/>
<path d="M61.922 24.8477H49.5011V37.2712H61.922V24.8477Z" fill="#FFA727"/>
<path d="M74.343 24.8477H61.9222V37.2712H74.343V24.8477Z" fill="white"/>
<path d="M12.2503 24.8477H-0.170589V37.2712H12.2503V24.8477Z" fill="white"/>
<path d="M61.922 12.4239H49.5011V24.8474H61.922V12.4239Z" fill="#FF7416"/>
<path d="M74.343 12.4239H61.9222V24.8474H74.343V12.4239Z" fill="#FF5100"/>
<path d="M12.2503 37.2597H-0.170589V49.6832H12.2503V37.2597Z" fill="#FFA727"/>
<path d="M24.6714 37.2597H12.2505V49.6832H24.6714V37.2597Z" fill="#FFA727"/>
<path d="M37.0925 37.2597H24.6716V49.6832H37.0925V37.2597Z" fill="#FFCD1A"/>
<path d="M49.5127 37.2597H37.0918V49.6832H49.5127V37.2597Z" fill="#FFCD1A"/>
<path d="M61.922 37.2597H49.5011V49.6832H61.922V37.2597Z" fill="#FFA727"/>
<path d="M74.343 37.2597H61.9222V49.6832H74.343V37.2597Z" fill="#FFA727"/>
<path d="M12.2503 49.6826H-0.170589V62.1061H12.2503V49.6826Z" fill="#FFA727"/>
<path d="M24.6714 49.6826H12.2505V62.1061H24.6714V49.6826Z" fill="white"/>
<path d="M37.0925 49.6826H24.6716V62.1061H37.0925V49.6826Z" fill="#FFCD1A"/>
<path d="M49.5127 49.6826H37.0918V62.1061H49.5127V49.6826Z" fill="#FFCD1A"/>
<path d="M61.922 49.6826H49.5011V62.1061H61.922V49.6826Z" fill="white"/>
<path d="M74.343 49.6826H61.9222V62.1061H74.343V49.6826Z" fill="#FFA727"/>
<path d="M86.7642 24.8477H74.3433V37.2712H86.7642V24.8477Z" fill="#FF7416"/>
<path d="M99.1725 24.8477H86.7516V37.2712H99.1725V24.8477Z" fill="#FF5100"/>
<path d="M12.2503 62.1064H-0.170589V74.5299H12.2503V62.1064Z" fill="#FFA727"/>
<path d="M24.6714 62.1064H12.2505V74.5299H24.6714V62.1064Z" fill="#1F1F1F"/>
<path d="M37.0925 62.1064H24.6716V74.5299H37.0925V62.1064Z" fill="#FFCD1A"/>
<path d="M49.5127 62.1064H37.0918V74.5299H49.5127V62.1064Z" fill="#FFCD1A"/>
<path d="M61.922 62.1064H49.5011V74.5299H61.922V62.1064Z" fill="#1F1F1F"/>
<path d="M74.343 62.1064H61.9222V74.5299H74.343V62.1064Z" fill="#FFA727"/>
<path d="M86.7642 37.2597H74.3433V49.6832H86.7642V37.2597Z" fill="#FF7416"/>
<path d="M99.1725 37.2597H86.7516V49.6832H99.1725V37.2597Z" fill="#FF7416"/>
<path d="M86.7642 74.5175H74.3433V86.941H86.7642V74.5175Z" fill="#FF7416"/>
<path d="M99.1725 74.5175H86.7516V86.941H99.1725V74.5175Z" fill="#FF5100"/>
<path d="M86.7642 86.9423H74.3433V99.3658H86.7642V86.9423Z" fill="#FF7416"/>
<path d="M99.1725 86.9423H86.7516V99.3658H99.1725V86.9423Z" fill="#FF7416"/>
<path d="M12.2503 74.5175H-0.170589V86.941H12.2503V74.5175Z" fill="#FFA727"/>
<path d="M12.2503 86.9423H-0.170589V99.3658H12.2503V86.9423Z" fill="white"/>
<path d="M74.343 86.9423H61.9222V99.3658H74.343V86.9423Z" fill="white"/>
<path d="M24.6714 74.5175H12.2505V86.941H24.6714V74.5175Z" fill="#FFA727"/>
<path d="M37.0925 74.5175H24.6716V86.941H37.0925V74.5175Z" fill="#FFCD1A"/>
<path d="M49.5127 74.5175H37.0918V86.941H49.5127V74.5175Z" fill="#FFCD1A"/>
<path d="M61.922 74.5175H49.5011V86.941H61.922V74.5175Z" fill="#FFA727"/>
<path d="M74.343 74.5175H61.9222V86.941H74.343V74.5175Z" fill="#FFA727"/>
<path d="M12.2503 99.3652H-0.170589V111.789H12.2503V99.3652Z" fill="#FF7416"/>
<path d="M24.6714 99.3652H12.2505V111.789H24.6714V99.3652Z" fill="#FF7416"/>
<path d="M24.6714 86.9423H12.2505V99.3658H24.6714V86.9423Z" fill="#FFA727"/>
<path d="M37.0925 86.9423H24.6716V99.3658H37.0925V86.9423Z" fill="#FFA727"/>
<path d="M49.5127 86.9423H37.0918V99.3658H49.5127V86.9423Z" fill="#FFA727"/>
<path d="M61.922 86.9423H49.5011V99.3658H61.922V86.9423Z" fill="#FFA727"/>
<path d="M61.922 99.3652H49.5011V111.789H61.922V99.3652Z" fill="#FF7416"/>
<path d="M74.343 99.3652H61.9222V111.789H74.343V99.3652Z" fill="#FF7416"/>
<path d="M12.2503 111.776H-0.170589V124.2H12.2503V111.776Z" fill="#FF7416"/>
<path d="M24.6714 111.776H12.2505V124.2H24.6714V111.776Z" fill="#FF5100"/>
<path d="M61.922 111.776H49.5011V124.2H61.922V111.776Z" fill="#FF7416"/>
<path d="M74.343 111.776H61.9222V124.2H74.343V111.776Z" fill="#FF5100"/>
</svg>
