<svg width="125" height="125" viewBox="0 0 125 125" fill="none" xmlns="http://www.w3.org/2000/svg">
<path d="M37.2504 0H24.8296V12.4235H37.2504V0Z" fill="#FF5100"/>
<path d="M49.6715 0H37.2506V12.4235H49.6715V0Z" fill="#FF7416"/>
<path d="M86.9221 0H74.5012V12.4235H86.9221V0Z" fill="#FF7416"/>
<path d="M99.3431 0H86.9222V12.4235H99.3431V0Z" fill="#FF7416"/>
<path d="M37.2504 12.4238H24.8296V24.8473H37.2504V12.4238Z" fill="#FF7416"/>
<path d="M49.6715 12.4238H37.2506V24.8473H49.6715V12.4238Z" fill="#FF7416"/>
<path d="M49.6715 24.8477H37.2506V37.2712H49.6715V24.8477Z" fill="#FFA727"/>
<path d="M62.0926 24.8477H49.6718V37.2712H62.0926V24.8477Z" fill="#FFA727"/>
<path d="M74.5128 24.8477H62.0919V37.2712H74.5128V24.8477Z" fill="#FFA727"/>
<path d="M86.9221 24.8477H74.5012V37.2712H86.9221V24.8477Z" fill="#FFA727"/>
<path d="M99.3431 24.8477H86.9222V37.2712H99.3431V24.8477Z" fill="white"/>
<path d="M37.2504 24.8477H24.8296V37.2712H37.2504V24.8477Z" fill="white"/>
<path d="M86.9221 12.4238H74.5012V24.8473H86.9221V12.4238Z" fill="#FF7416"/>
<path d="M99.3431 12.4238H86.9222V24.8473H99.3431V12.4238Z" fill="#FF5100"/>
<path d="M37.2504 37.2597H24.8296V49.6832H37.2504V37.2597Z" fill="#FFA727"/>
<path d="M49.6715 37.2597H37.2506V49.6832H49.6715V37.2597Z" fill="#FFA727"/>
<path d="M62.0926 37.2597H49.6718V49.6832H62.0926V37.2597Z" fill="#FFCD1A"/>
<path d="M74.5128 37.2597H62.0919V49.6832H74.5128V37.2597Z" fill="#FFCD1A"/>
<path d="M86.9221 37.2597H74.5012V49.6832H86.9221V37.2597Z" fill="#FFA727"/>
<path d="M99.3431 37.2597H86.9222V49.6832H99.3431V37.2597Z" fill="#FFA727"/>
<path d="M12.421 74.5175H0.00012207V86.941H12.421V74.5175Z" fill="#FF7416"/>
<path d="M24.8412 74.5175H12.4203V86.941H24.8412V74.5175Z" fill="#FF7416"/>
<path d="M37.2504 49.6826H24.8296V62.1061H37.2504V49.6826Z" fill="#FFA727"/>
<path d="M49.6715 49.6826H37.2506V62.1061H49.6715V49.6826Z" fill="white"/>
<path d="M62.0926 49.6826H49.6718V62.1061H62.0926V49.6826Z" fill="#FFCD1A"/>
<path d="M74.5128 49.6826H62.0919V62.1061H74.5128V49.6826Z" fill="#FFCD1A"/>
<path d="M86.9221 49.6826H74.5012V62.1061H86.9221V49.6826Z" fill="white"/>
<path d="M99.3431 49.6826H86.9222V62.1061H99.3431V49.6826Z" fill="#FFA727"/>
<path d="M111.764 24.8477H99.3434V37.2712H111.764V24.8477Z" fill="#FF7416"/>
<path d="M124.173 24.8477H111.752V37.2712H124.173V24.8477Z" fill="#FF5100"/>
<path d="M12.421 86.9422H0.00012207V99.3658H12.421V86.9422Z" fill="#FF5100"/>
<path d="M24.8412 86.9422H12.4203V99.3658H24.8412V86.9422Z" fill="#FF7416"/>
<path d="M12.421 24.8477H0.00012207V37.2712H12.421V24.8477Z" fill="#FF7416"/>
<path d="M24.8412 24.8477H12.4203V37.2712H24.8412V24.8477Z" fill="#FF7416"/>
<path d="M12.421 37.2597H0.00012207V49.6832H12.421V37.2597Z" fill="#FF5100"/>
<path d="M24.8412 37.2597H12.4203V49.6832H24.8412V37.2597Z" fill="#FF7416"/>
<path d="M37.2504 62.1064H24.8296V74.5299H37.2504V62.1064Z" fill="#FFA727"/>
<path d="M49.6715 62.1064H37.2506V74.5299H49.6715V62.1064Z" fill="#1F1F1F"/>
<path d="M62.0926 62.1064H49.6718V74.5299H62.0926V62.1064Z" fill="#FFCD1A"/>
<path d="M74.5128 62.1064H62.0919V74.5299H74.5128V62.1064Z" fill="#FFCD1A"/>
<path d="M86.9221 62.1064H74.5012V74.5299H86.9221V62.1064Z" fill="#1F1F1F"/>
<path d="M99.3431 62.1064H86.9222V74.5299H99.3431V62.1064Z" fill="#FFA727"/>
<path d="M111.764 37.2597H99.3434V49.6832H111.764V37.2597Z" fill="#FF7416"/>
<path d="M124.173 37.2597H111.752V49.6832H124.173V37.2597Z" fill="#FF7416"/>
<path d="M111.764 74.5175H99.3434V86.941H111.764V74.5175Z" fill="#FF7416"/>
<path d="M124.173 74.5175H111.752V86.941H124.173V74.5175Z" fill="#FF5100"/>
<path d="M111.764 86.9422H99.3434V99.3658H111.764V86.9422Z" fill="#FF7416"/>
<path d="M124.173 86.9422H111.752V99.3658H124.173V86.9422Z" fill="#FF7416"/>
<path d="M37.2504 74.5175H24.8296V86.941H37.2504V74.5175Z" fill="#FFA727"/>
<path d="M37.2504 86.9422H24.8296V99.3658H37.2504V86.9422Z" fill="white"/>
<path d="M99.3431 86.9422H86.9222V99.3658H99.3431V86.9422Z" fill="white"/>
<path d="M49.6715 74.5175H37.2506V86.941H49.6715V74.5175Z" fill="#FFA727"/>
<path d="M62.0926 74.5175H49.6718V86.941H62.0926V74.5175Z" fill="#FFCD1A"/>
<path d="M74.5128 74.5175H62.0919V86.941H74.5128V74.5175Z" fill="#FFCD1A"/>
<path d="M86.9221 74.5175H74.5012V86.941H86.9221V74.5175Z" fill="#FFA727"/>
<path d="M99.3431 74.5175H86.9222V86.941H99.3431V74.5175Z" fill="#FFA727"/>
<path d="M37.2504 99.3652H24.8296V111.789H37.2504V99.3652Z" fill="#FF7416"/>
<path d="M49.6715 99.3652H37.2506V111.789H49.6715V99.3652Z" fill="#FF7416"/>
<path d="M49.6715 86.9422H37.2506V99.3658H49.6715V86.9422Z" fill="#FFA727"/>
<path d="M62.0926 86.9422H49.6718V99.3658H62.0926V86.9422Z" fill="#FFA727"/>
<path d="M74.5128 86.9422H62.0919V99.3658H74.5128V86.9422Z" fill="#FFA727"/>
<path d="M86.9221 86.9422H74.5012V99.3658H86.9221V86.9422Z" fill="#FFA727"/>
<path d="M86.9221 99.3652H74.5012V111.789H86.9221V99.3652Z" fill="#FF7416"/>
<path d="M99.3431 99.3652H86.9222V111.789H99.3431V99.3652Z" fill="#FF7416"/>
<path d="M37.2504 111.776H24.8296V124.2H37.2504V111.776Z" fill="#FF7416"/>
<path d="M49.6715 111.776H37.2506V124.2H49.6715V111.776Z" fill="#FF5100"/>
<path d="M86.9221 111.776H74.5012V124.2H86.9221V111.776Z" fill="#FF7416"/>
<path d="M99.3431 111.776H86.9222V124.2H99.3431V111.776Z" fill="#FF5100"/>
</svg>
