<svg width="100" height="100" viewBox="0 0 100 100" fill="none" xmlns="http://www.w3.org/2000/svg">
<path d="M24.842 0H12.4212V12.4235H24.842V0Z" fill="#F9D358"/>
<path d="M37.2513 0H24.8304V12.4235H37.2513V0Z" fill="#F9D358"/>
<path d="M49.6724 0H37.2515V12.4235H49.6724V0Z" fill="#F9D358"/>
<path d="M62.0926 0H49.6717V12.4235H62.0926V0Z" fill="#F9D358"/>
<path d="M74.5019 0H62.081V12.4235H74.5019V0Z" fill="#F9D358"/>
<path d="M24.842 12.4238H12.4212V24.8474H24.842V12.4238Z" fill="#FFCD1A"/>
<path d="M37.2513 12.4238H24.8304V24.8474H37.2513V12.4238Z" fill="#FFCD1A"/>
<path d="M49.6724 12.4238H37.2515V24.8474H49.6724V12.4238Z" fill="#FFCD1A"/>
<path d="M62.0926 12.4238H49.6717V24.8474H62.0926V12.4238Z" fill="#D3A511"/>
<path d="M74.5019 12.4238H62.081V24.8474H74.5019V12.4238Z" fill="#FFCD1A"/>
<path d="M86.923 12.4238H74.5021V24.8474H86.923V12.4238Z" fill="#FFCD1A"/>
<path d="M12.421 24.835H6.10352e-05V37.2585H12.421V24.835Z" fill="#F9D358"/>
<path d="M24.842 24.835H12.4212V37.2585H24.842V24.835Z" fill="#FFCD1A"/>
<path d="M37.2513 24.835H24.8304V37.2585H37.2513V24.835Z" fill="white"/>
<path d="M49.6724 24.835H37.2515V37.2585H49.6724V24.835Z" fill="#FFCD1A"/>
<path d="M62.0926 24.835H49.6717V37.2585H62.0926V24.835Z" fill="#FFCD1A"/>
<path d="M74.5019 24.835H62.081V37.2585H74.5019V24.835Z" fill="white"/>
<path d="M86.923 24.835H74.5021V37.2585H86.923V24.835Z" fill="#FFCD1A"/>
<path d="M99.3441 24.835H86.9232V37.2585H99.3441V24.835Z" fill="#F9D358"/>
<path d="M12.421 37.2588H6.10352e-05V49.6823H12.421V37.2588Z" fill="#F9D358"/>
<path d="M24.842 37.2588H12.4212V49.6823H24.842V37.2588Z" fill="#FFCD1A"/>
<path d="M37.2513 37.2588H24.8304V49.6823H37.2513V37.2588Z" fill="#1F1F1F"/>
<path d="M49.6724 37.2588H37.2515V49.6823H49.6724V37.2588Z" fill="white"/>
<path d="M62.0926 37.2588H49.6717V49.6823H62.0926V37.2588Z" fill="#FFCD1A"/>
<path d="M74.5019 37.2588H62.081V49.6823H74.5019V37.2588Z" fill="#1F1F1F"/>
<path d="M86.923 37.2588H74.5021V49.6823H86.923V37.2588Z" fill="white"/>
<path d="M99.3441 37.2588H86.9232V49.6823H99.3441V37.2588Z" fill="#F9D358"/>
<path d="M12.421 49.6826H6.10352e-05V62.1061H12.421V49.6826Z" fill="#F9D358"/>
<path d="M24.842 49.6826H12.4212V62.1061H24.842V49.6826Z" fill="#FFCD1A"/>
<path d="M37.2513 49.6826H24.8304V62.1061H37.2513V49.6826Z" fill="#FFCD1A"/>
<path d="M49.6724 49.6826H37.2515V62.1061H49.6724V49.6826Z" fill="#FFCD1A"/>
<path d="M62.0926 49.6826H49.6717V62.1061H62.0926V49.6826Z" fill="#FFCD1A"/>
<path d="M74.5019 49.6826H62.081V62.1061H74.5019V49.6826Z" fill="#FFCD1A"/>
<path d="M86.923 49.6826H74.5021V62.1061H86.923V49.6826Z" fill="#FFCD1A"/>
<path d="M99.3441 49.6826H86.9232V62.1061H99.3441V49.6826Z" fill="#F9D358"/>
<path d="M12.421 62.0946H6.10352e-05V74.5181H12.421V62.0946Z" fill="#F9D358"/>
<path d="M24.842 62.0946H12.4212V74.5181H24.842V62.0946Z" fill="#FFCD1A"/>
<path d="M37.2513 62.0946H24.8304V74.5181H37.2513V62.0946Z" fill="#D3A511"/>
<path d="M49.6724 62.0946H37.2515V74.5181H49.6724V62.0946Z" fill="#FFCD1A"/>
<path d="M62.0926 62.0946H49.6717V74.5181H62.0926V62.0946Z" fill="#FFCD1A"/>
<path d="M74.5019 62.0946H62.081V74.5181H74.5019V62.0946Z" fill="#FFCD1A"/>
<path d="M86.923 62.0946H74.5021V74.5181H86.923V62.0946Z" fill="#FFCD1A"/>
<path d="M99.3441 62.0946H86.9232V74.5181H99.3441V62.0946Z" fill="#F9D358"/>
<path d="M24.842 74.5175H12.4212V86.941H24.842V74.5175Z" fill="#FFCD1A"/>
<path d="M37.2513 74.5175H24.8304V86.941H37.2513V74.5175Z" fill="#FFCD1A"/>
<path d="M49.6724 74.5175H37.2515V86.941H49.6724V74.5175Z" fill="#FFCD1A"/>
<path d="M62.0926 74.5175H49.6717V86.941H62.0926V74.5175Z" fill="#FFCD1A"/>
<path d="M74.5019 74.5175H62.081V86.941H74.5019V74.5175Z" fill="#FFCD1A"/>
<path d="M86.923 74.5175H74.5021V86.941H86.923V74.5175Z" fill="#FFCD1A"/>
<path d="M37.2513 86.9404H24.8304V99.364H37.2513V86.9404Z" fill="#F9D358"/>
<path d="M49.6724 86.9404H37.2515V99.364H49.6724V86.9404Z" fill="#F9D358"/>
<path d="M62.0926 86.9404H49.6717V99.364H62.0926V86.9404Z" fill="#F9D358"/>
<path d="M74.5019 86.9404H62.081V99.364H74.5019V86.9404Z" fill="#F9D358"/>
<path d="M86.923 86.9404H74.5021V99.364H86.923V86.9404Z" fill="#F9D358"/>
</svg>
