<svg width="125" height="126" viewBox="0 0 125 126" fill="none" xmlns="http://www.w3.org/2000/svg">
<path d="M49.6725 13.2706H62.0934V25.6941H49.6725V13.2706Z" fill="#1F1F1F"/>
<path d="M24.8421 13.2706H37.2631V25.6941H24.8421V13.2706Z" fill="white"/>
<path d="M111.765 38.1055H124.186V50.529H111.765V38.1055Z" fill="#9DED00"/>
<path d="M99.3442 38.1055H111.765V50.529H99.3442V38.1055Z" fill="#9DED00"/>
<path d="M86.9231 38.1055H99.344V50.529H86.9231V38.1055Z" fill="#9DED00"/>
<path d="M124.175 50.5293H136.595V62.9528H124.175V50.5293Z" fill="#9DED00"/>
<path d="M111.765 50.5293H124.186V62.9528H111.765V50.5293Z" fill="#D1FF27"/>
<path d="M99.3442 50.5293H111.765V62.9528H99.3442V50.5293Z" fill="#D1FF27"/>
<path d="M86.9231 50.5293H99.344V62.9528H86.9231V50.5293Z" fill="#D1FF27"/>
<path d="M74.5138 50.5293H86.9347V62.9528H74.5138V50.5293Z" fill="#9DED00"/>
<path d="M124.175 62.9413H136.595V75.3648H124.175V62.9413Z" fill="#D1FF27"/>
<path d="M74.5138 62.9413H86.9347V75.3648H74.5138V62.9413Z" fill="#D1FF27"/>
<path d="M62.0936 62.9413H74.5145V75.3648H62.0936V62.9413Z" fill="#9DED00"/>
<path d="M124.175 75.3652H136.595V87.7887H124.175V75.3652Z" fill="#D1FF27"/>
<path d="M74.5138 75.3652H86.9347V87.7887H74.5138V75.3652Z" fill="#D1FF27"/>
<path d="M62.0936 75.3652H74.5145V87.7887H62.0936V75.3652Z" fill="#9DED00"/>
<path d="M124.175 87.7872H136.595V100.211H124.175V87.7872Z" fill="#D1FF27"/>
<path d="M74.5138 87.7872H86.9347V100.211H74.5138V87.7872Z" fill="#D1FF27"/>
<path d="M62.0936 87.7872H74.5145V100.211H62.0936V87.7872Z" fill="#9DED00"/>
<path d="M124.175 100.199H136.595V112.623H124.175V100.199Z" fill="#9DED00"/>
<path d="M111.765 100.199H124.186V112.623H111.765V100.199Z" fill="#D1FF27"/>
<path d="M99.3442 100.199H111.765V112.623H99.3442V100.199Z" fill="#D1FF27"/>
<path d="M86.9231 100.199H99.344V112.623H86.9231V100.199Z" fill="#D1FF27"/>
<path d="M74.5138 100.199H86.9347V112.623H74.5138V100.199Z" fill="#9DED00"/>
<path d="M111.765 112.623H124.186V125.047H111.765V112.623Z" fill="#9DED00"/>
<path d="M99.3442 112.623H111.765V125.047H99.3442V112.623Z" fill="#9DED00"/>
<path d="M86.9231 112.623H99.344V125.047H86.9231V112.623Z" fill="#9DED00"/>
<path d="M62.0936 -11.5771H74.5145V0.846428H62.0936V-11.5771Z" fill="#9DED00"/>
<path d="M49.6725 -11.5771H62.0934V0.846428H49.6725V-11.5771Z" fill="#D1FF27"/>
<path d="M37.2515 -11.5771H49.6724V0.846428H37.2515V-11.5771Z" fill="#D1FF27"/>
<path d="M24.8421 -11.5771H37.2631V0.846428H24.8421V-11.5771Z" fill="#D1FF27"/>
<path d="M12.4211 -11.5771H24.8419V0.846428H12.4211V-11.5771Z" fill="#9DED00"/>
<path d="M74.5138 0.846737H86.9347V13.2703H74.5138V0.846737Z" fill="#9DED00"/>
<path d="M62.0936 0.846737H74.5145V13.2703H62.0936V0.846737Z" fill="#D1FF27"/>
<path d="M12.4211 0.846737H24.8419V13.2703H12.4211V0.846737Z" fill="#D1FF27"/>
<path d="M-2.76566e-05 0.846737H12.4209V13.2703H-2.76566e-05V0.846737Z" fill="#9DED00"/>
<path d="M74.5138 13.2706H86.9347V25.6941H74.5138V13.2706Z" fill="#9DED00"/>
<path d="M62.0936 13.2706H74.5145V25.6941H62.0936V13.2706Z" fill="white"/>
<path d="M12.4211 13.2706H24.8419V25.6941H12.4211V13.2706Z" fill="#1F1F1F"/>
<path d="M-2.76566e-05 13.2706H12.4209V25.6941H-2.76566e-05V13.2706Z" fill="#9DED00"/>
<path d="M74.5138 25.6817H86.9347V38.1052H74.5138V25.6817Z" fill="#9DED00"/>
<path d="M62.0936 25.6817H74.5145V38.1052H62.0936V25.6817Z" fill="#D1FF27"/>
<path d="M12.4211 25.6817H24.8419V38.1052H12.4211V25.6817Z" fill="#D1FF27"/>
<path d="M-2.76566e-05 25.6817H12.4209V38.1052H-2.76566e-05V25.6817Z" fill="#9DED00"/>
<path d="M62.0936 38.1055H74.5145V50.529H62.0936V38.1055Z" fill="#9DED00"/>
<path d="M49.6725 38.1055H62.0934V50.529H49.6725V38.1055Z" fill="#D1FF27"/>
<path d="M37.2515 38.1055H49.6724V50.529H37.2515V38.1055Z" fill="#D1FF27"/>
<path d="M24.8421 38.1055H37.2631V50.529H24.8421V38.1055Z" fill="#D1FF27"/>
<path d="M12.4211 38.1055H24.8419V50.529H12.4211V38.1055Z" fill="#9DED00"/>
<path d="M49.6725 50.5293H62.0934V62.9528H49.6725V50.5293Z" fill="#9DED00"/>
<path d="M37.2515 50.5293H49.6724V62.9528H37.2515V50.5293Z" fill="#9DED00"/>
<path d="M24.8421 50.5293H37.2631V62.9528H24.8421V50.5293Z" fill="#9DED00"/>
</svg>
