<svg width="76" height="100" viewBox="0 0 76 100" fill="none" xmlns="http://www.w3.org/2000/svg">
<path d="M74.5021 3.05176e-05H86.923V12.4236H74.5021V3.05176e-05Z" fill="#F9D358"/>
<path d="M62.0928 3.05176e-05H74.5137V12.4236H62.0928V3.05176e-05Z" fill="#F9D358"/>
<path d="M49.6718 3.05176e-05H62.0927V12.4236H49.6718V3.05176e-05Z" fill="#F9D358"/>
<path d="M37.2515 3.05176e-05H49.6724V12.4236H37.2515V3.05176e-05Z" fill="#F9D358"/>
<path d="M24.8423 3.05176e-05H37.2632V12.4236H24.8423V3.05176e-05Z" fill="#F9D358"/>
<path d="M74.5021 12.4239H86.923V24.8474H74.5021V12.4239Z" fill="#FFCD1A"/>
<path d="M62.0928 12.4239H74.5137V24.8474H62.0928V12.4239Z" fill="#FFCD1A"/>
<path d="M49.6718 12.4239H62.0927V24.8474H49.6718V12.4239Z" fill="#FFCD1A"/>
<path d="M37.2515 12.4239H49.6724V24.8474H37.2515V12.4239Z" fill="#D3A511"/>
<path d="M24.8423 12.4239H37.2632V24.8474H24.8423V12.4239Z" fill="#FFCD1A"/>
<path d="M12.4212 12.4239H24.842V24.8474H12.4212V12.4239Z" fill="#FFCD1A"/>
<path d="M74.5021 24.8349H86.923V37.2585H74.5021V24.8349Z" fill="#FFCD1A"/>
<path d="M62.0928 24.8349H74.5137V37.2585H62.0928V24.8349Z" fill="white"/>
<path d="M49.6718 24.8349H62.0927V37.2585H49.6718V24.8349Z" fill="#FFCD1A"/>
<path d="M37.2515 24.8349H49.6724V37.2585H37.2515V24.8349Z" fill="#FFCD1A"/>
<path d="M24.8423 24.8349H37.2632V37.2585H24.8423V24.8349Z" fill="white"/>
<path d="M12.4212 24.8349H24.842V37.2585H12.4212V24.8349Z" fill="#FFCD1A"/>
<path d="M-2.76566e-05 24.8349H12.4209V37.2585H-2.76566e-05V24.8349Z" fill="#F9D358"/>
<path d="M74.5021 37.2588H86.923V49.6823H74.5021V37.2588Z" fill="#FFCD1A"/>
<path d="M62.0928 37.2588H74.5137V49.6823H62.0928V37.2588Z" fill="#1F1F1F"/>
<path d="M49.6718 37.2588H62.0927V49.6823H49.6718V37.2588Z" fill="white"/>
<path d="M37.2515 37.2588H49.6724V49.6823H37.2515V37.2588Z" fill="#FFCD1A"/>
<path d="M24.8423 37.2588H37.2632V49.6823H24.8423V37.2588Z" fill="#1F1F1F"/>
<path d="M12.4212 37.2588H24.842V49.6823H12.4212V37.2588Z" fill="white"/>
<path d="M-2.76566e-05 37.2588H12.4209V49.6823H-2.76566e-05V37.2588Z" fill="#F9D358"/>
<path d="M74.5021 49.6826H86.923V62.1061H74.5021V49.6826Z" fill="#FFCD1A"/>
<path d="M62.0928 49.6826H74.5137V62.1061H62.0928V49.6826Z" fill="#FFCD1A"/>
<path d="M49.6718 49.6826H62.0927V62.1061H49.6718V49.6826Z" fill="#FFCD1A"/>
<path d="M37.2515 49.6826H49.6724V62.1061H37.2515V49.6826Z" fill="#FFCD1A"/>
<path d="M24.8423 49.6826H37.2632V62.1061H24.8423V49.6826Z" fill="#FFCD1A"/>
<path d="M12.4212 49.6826H24.842V62.1061H12.4212V49.6826Z" fill="#FFCD1A"/>
<path d="M-2.76566e-05 49.6826H12.4209V62.1061H-2.76566e-05V49.6826Z" fill="#F9D358"/>
<path d="M74.5021 62.0946H86.923V74.5181H74.5021V62.0946Z" fill="#FFCD1A"/>
<path d="M62.0928 62.0946H74.5137V74.5181H62.0928V62.0946Z" fill="#D3A511"/>
<path d="M49.6718 62.0946H62.0927V74.5181H49.6718V62.0946Z" fill="#FFCD1A"/>
<path d="M37.2515 62.0946H49.6724V74.5181H37.2515V62.0946Z" fill="#FFCD1A"/>
<path d="M24.8423 62.0946H37.2632V74.5181H24.8423V62.0946Z" fill="#FFCD1A"/>
<path d="M12.4212 62.0946H24.842V74.5181H12.4212V62.0946Z" fill="#FFCD1A"/>
<path d="M-2.76566e-05 62.0946H12.4209V74.5181H-2.76566e-05V62.0946Z" fill="#F9D358"/>
<path d="M74.5021 74.5175H86.923V86.941H74.5021V74.5175Z" fill="#FFCD1A"/>
<path d="M62.0928 74.5175H74.5137V86.941H62.0928V74.5175Z" fill="#FFCD1A"/>
<path d="M49.6718 74.5175H62.0927V86.941H49.6718V74.5175Z" fill="#FFCD1A"/>
<path d="M37.2515 74.5175H49.6724V86.941H37.2515V74.5175Z" fill="#FFCD1A"/>
<path d="M24.8423 74.5175H37.2632V86.941H24.8423V74.5175Z" fill="#FFCD1A"/>
<path d="M12.4212 74.5175H24.842V86.941H12.4212V74.5175Z" fill="#FFCD1A"/>
<path d="M62.0928 86.9404H74.5137V99.364H62.0928V86.9404Z" fill="#F9D358"/>
<path d="M49.6718 86.9404H62.0927V99.364H49.6718V86.9404Z" fill="#F9D358"/>
<path d="M37.2515 86.9404H49.6724V99.364H37.2515V86.9404Z" fill="#F9D358"/>
<path d="M24.8423 86.9404H37.2632V99.364H24.8423V86.9404Z" fill="#F9D358"/>
<path d="M12.4212 86.9404H24.842V99.364H12.4212V86.9404Z" fill="#F9D358"/>
</svg>
