<svg width="88" height="52" viewBox="0 0 88 52" fill="none" xmlns="http://www.w3.org/2000/svg">
<g clip-path="url(#clip0_2340_2485)">
<path d="M7.3166 0H0V7.31627H7.3166V0Z" fill="#EDCED3"/>
<path d="M14.633 0H7.31641V7.31627H14.633V0Z" fill="#F0A2BE"/>
<path d="M7.31672 7.31689H0.00012207V14.6332H7.31672V7.31689Z" fill="#F0A2BE"/>
<path d="M21.9433 0H14.6267V7.31627H21.9433V0Z" fill="#F467A5"/>
<path d="M14.633 7.31689H7.31641V14.6332H14.633V7.31689Z" fill="#F467A5"/>
<path d="M7.31672 14.626H0.00012207V21.9422H7.31672V14.626Z" fill="#F467A5"/>
<path d="M29.2593 0H21.9427V7.31627H29.2593V0Z" fill="#F7558C"/>
<path d="M21.943 7.31689H14.6264V14.6332H21.943V7.31689Z" fill="#F7558C"/>
<path d="M14.6327 14.626H7.31613V21.9422H14.6327V14.626Z" fill="#F7558C"/>
<path d="M29.2596 14.626H21.943V21.9422H29.2596V14.626Z" fill="black"/>
<path d="M36.5764 14.626H29.2598V21.9422H36.5764V14.626Z" fill="white"/>
<path d="M58.5193 14.626H51.2027V21.9422H58.5193V14.626Z" fill="black"/>
<path d="M65.8286 14.626H58.512V21.9422H65.8286V14.626Z" fill="white"/>
<path d="M36.5762 0H29.2596V7.31627H36.5762V0Z" fill="#F04663"/>
<path d="M29.2593 7.31689H21.9427V14.6332H29.2593V7.31689Z" fill="#F04663"/>
<path d="M21.943 14.626H14.6264V21.9422H21.943V14.626Z" fill="#F04663"/>
<path d="M14.6327 21.9429H7.31613V29.2591H14.6327V21.9429Z" fill="#F04663"/>
<path d="M43.8854 0H36.5688V7.31627H43.8854V0Z" fill="#F23A3C"/>
<path d="M36.5762 7.31689H29.2596V14.6332H36.5762V7.31689Z" fill="#F23A3C"/>
<path d="M21.943 21.9429H14.6264V29.2591H21.943V21.9429Z" fill="#F23A3C"/>
<path d="M14.6327 29.2583H7.31613V36.5746H14.6327V29.2583Z" fill="#F23A3C"/>
<path d="M51.2026 0H43.886V7.31627H51.2026V0Z" fill="#F25230"/>
<path d="M43.8858 7.31689H36.5692V14.6332H43.8858V7.31689Z" fill="#F25230"/>
<path d="M29.2597 21.9429H21.9431V29.2591H29.2597V21.9429Z" fill="#F25230"/>
<path d="M21.9434 29.2583H14.6268V36.5746H21.9434V29.2583Z" fill="#F25230"/>
<path d="M58.5195 0H51.2029V7.31627H58.5195V0Z" fill="#F17928"/>
<path d="M51.2026 7.31689H43.886V14.6332H51.2026V7.31689Z" fill="#F17928"/>
<path d="M43.8858 14.626H36.5692V21.9422H43.8858V14.626Z" fill="#F17928"/>
<path d="M36.5765 21.9429H29.2599V29.2591H36.5765V21.9429Z" fill="#F17928"/>
<path d="M29.2597 29.2583H21.9431V36.5746H29.2597V29.2583Z" fill="#F17928"/>
<path d="M21.9434 36.5679H14.6268V43.8841H21.9434V36.5679Z" fill="#F17928"/>
<path d="M65.8283 0H58.5117V7.31627H65.8283V0Z" fill="#EF9B22"/>
<path d="M58.5191 7.31689H51.2025V14.6332H58.5191V7.31689Z" fill="#EF9B22"/>
<path d="M51.2022 14.626H43.8856V21.9422H51.2022V14.626Z" fill="#EF9B22"/>
<path d="M43.8854 21.9429H36.5688V29.2591H43.8854V21.9429Z" fill="#EF9B22"/>
<path d="M36.5762 29.2583H29.2596V36.5746H36.5762V29.2583Z" fill="#EF9B22"/>
<path d="M29.2593 36.5679H21.9427V43.8841H29.2593V36.5679Z" fill="#EF9B22"/>
<path d="M73.1453 0H65.8287V7.31627H73.1453V0Z" fill="#EDBE17"/>
<path d="M65.8285 7.31689H58.5119V14.6332H65.8285V7.31689Z" fill="#EDBE17"/>
<path d="M51.2024 21.9429H43.8858V29.2591H51.2024V21.9429Z" fill="#EDBE17"/>
<path d="M43.8856 29.2583H36.569V36.5746H43.8856V29.2583Z" fill="#EDBE17"/>
<path d="M36.5764 36.5679H29.2598V43.8841H36.5764V36.5679Z" fill="#EDBE17"/>
<path d="M80.4619 29.2583H73.1453V36.5746H80.4619V29.2583Z" fill="#ADDE8F"/>
<path d="M73.1455 36.5679H65.8289V43.8841H73.1455V36.5679Z" fill="#ADDE8F"/>
<path d="M80.4617 0H73.1451V7.31627H80.4617V0Z" fill="#E1E61B"/>
<path d="M73.1453 7.31689H65.8287V14.6332H73.1453V7.31689Z" fill="#E1E61B"/>
<path d="M58.5193 21.9429H51.2027V29.2591H58.5193V21.9429Z" fill="#E1E61B"/>
<path d="M51.2024 29.2583H43.8858V36.5746H51.2024V29.2583Z" fill="#E1E61B"/>
<path d="M43.8856 36.5679H36.569V43.8841H43.8856V36.5679Z" fill="#E1E61B"/>
<path d="M36.5764 43.8833H29.2598V51.1996H36.5764V43.8833Z" fill="#E1E61B"/>
<path d="M87.7783 0H80.4617V7.31627H87.7783V0Z" fill="#D2EB76"/>
<path d="M80.4615 7.31689H73.1449V14.6332H80.4615V7.31689Z" fill="#D2EB76"/>
<path d="M73.1452 14.626H65.8286V21.9422H73.1452V14.626Z" fill="#D2EB76"/>
<path d="M65.8284 21.9429H58.5118V29.2591H65.8284V21.9429Z" fill="#D2EB76"/>
<path d="M58.5191 29.2583H51.2025V36.5746H58.5191V29.2583Z" fill="#D2EB76"/>
<path d="M51.2023 36.5679H43.8857V43.8841H51.2023V36.5679Z" fill="#D2EB76"/>
<path d="M43.8855 43.8833H36.5689V51.1996H43.8855V43.8833Z" fill="#D2EB76"/>
<path d="M87.7785 7.31689H80.4619V14.6332H87.7785V7.31689Z" fill="#B1E845"/>
<path d="M80.4617 14.626H73.1451V21.9422H80.4617V14.626Z" fill="#B1E845"/>
<path d="M73.1453 21.9429H65.8287V29.2591H73.1453V21.9429Z" fill="#B1E845"/>
<path d="M65.8285 29.2583H58.5119V36.5746H65.8285V29.2583Z" fill="#B1E845"/>
<path d="M58.5193 36.5679H51.2027V43.8841H58.5193V36.5679Z" fill="#B1E845"/>
<path d="M51.2024 43.8843H43.8858V51.2005H51.2024V43.8843Z" fill="#B1E845"/>
<path d="M87.7787 14.626H80.4621V21.9422H87.7787V14.626Z" fill="#94E352"/>
<path d="M80.4618 21.9429H73.1452V29.2591H80.4618V21.9429Z" fill="#94E352"/>
<path d="M73.1455 29.2583H65.8289V36.5746H73.1455V29.2583Z" fill="#94E352"/>
<path d="M65.8287 36.5679H58.5121V43.8841H65.8287V36.5679Z" fill="#94E352"/>
<path d="M58.5195 43.8843H51.2029V51.2005H58.5195V43.8843Z" fill="#94E352"/>
</g>
<defs>
<clipPath id="clip0_2340_2485">
<rect width="87.7714" height="51.2" fill="white"/>
</clipPath>
</defs>
</svg>
