<svg width="150" height="150" viewBox="0 0 150 150" fill="none" xmlns="http://www.w3.org/2000/svg">
<path d="M99.3433 37.2706H86.9224V49.6941H99.3433V37.2706Z" fill="#1F1F1F"/>
<path d="M124.174 37.2706H111.753V49.6941H124.174V37.2706Z" fill="white"/>
<path d="M37.2505 62.1055H24.8296V74.529H37.2505V62.1055Z" fill="#9DED00"/>
<path d="M49.6715 62.1055H37.2506V74.529H49.6715V62.1055Z" fill="#9DED00"/>
<path d="M62.0926 62.1055H49.6718V74.529H62.0926V62.1055Z" fill="#9DED00"/>
<path d="M24.8412 74.5293H12.4203V86.9528H24.8412V74.5293Z" fill="#9DED00"/>
<path d="M37.2505 74.5293H24.8296V86.9528H37.2505V74.5293Z" fill="#D1FF27"/>
<path d="M49.6715 74.5293H37.2506V86.9528H49.6715V74.5293Z" fill="#D1FF27"/>
<path d="M62.0926 74.5293H49.6718V86.9528H62.0926V74.5293Z" fill="#D1FF27"/>
<path d="M74.5019 74.5293H62.0811V86.9528H74.5019V74.5293Z" fill="#9DED00"/>
<path d="M12.421 86.9413H0.00012207V99.3648H12.421V86.9413Z" fill="#9DED00"/>
<path d="M24.8412 86.9413H12.4203V99.3648H24.8412V86.9413Z" fill="#D1FF27"/>
<path d="M74.5019 86.9413H62.0811V99.3648H74.5019V86.9413Z" fill="#D1FF27"/>
<path d="M86.9221 86.9413H74.5012V99.3648H86.9221V86.9413Z" fill="#9DED00"/>
<path d="M12.421 99.3652H0.00012207V111.789H12.421V99.3652Z" fill="#9DED00"/>
<path d="M24.8412 99.3652H12.4203V111.789H24.8412V99.3652Z" fill="#D1FF27"/>
<path d="M74.5019 99.3652H62.0811V111.789H74.5019V99.3652Z" fill="#D1FF27"/>
<path d="M86.9221 99.3652H74.5012V111.789H86.9221V99.3652Z" fill="#9DED00"/>
<path d="M12.421 111.787H0.00012207V124.211H12.421V111.787Z" fill="#9DED00"/>
<path d="M24.8412 111.787H12.4203V124.211H24.8412V111.787Z" fill="#D1FF27"/>
<path d="M74.5019 111.787H62.0811V124.211H74.5019V111.787Z" fill="#D1FF27"/>
<path d="M86.9221 111.787H74.5012V124.211H86.9221V111.787Z" fill="#9DED00"/>
<path d="M24.8412 124.199H12.4203V136.623H24.8412V124.199Z" fill="#9DED00"/>
<path d="M37.2505 124.199H24.8296V136.623H37.2505V124.199Z" fill="#D1FF27"/>
<path d="M49.6715 124.199H37.2506V136.623H49.6715V124.199Z" fill="#D1FF27"/>
<path d="M62.0926 124.199H49.6718V136.623H62.0926V124.199Z" fill="#D1FF27"/>
<path d="M74.5019 124.199H62.0811V136.623H74.5019V124.199Z" fill="#9DED00"/>
<path d="M37.2505 136.623H24.8296V149.047H37.2505V136.623Z" fill="#9DED00"/>
<path d="M49.6715 136.623H37.2506V149.047H49.6715V136.623Z" fill="#9DED00"/>
<path d="M62.0926 136.623H49.6718V149.047H62.0926V136.623Z" fill="#9DED00"/>
<path d="M99.3433 0H86.9224V12.4235H99.3433V0Z" fill="#9DED00"/>
<path d="M111.764 0H99.3434V12.4235H111.764V0Z" fill="#9DED00"/>
<path d="M124.174 0H111.753V12.4235H124.174V0Z" fill="#9DED00"/>
<path d="M86.9221 12.4229H74.5012V24.8464H86.9221V12.4229Z" fill="#9DED00"/>
<path d="M99.3433 12.4229H86.9224V24.8464H99.3433V12.4229Z" fill="#D1FF27"/>
<path d="M111.764 12.4229H99.3434V24.8464H111.764V12.4229Z" fill="#D1FF27"/>
<path d="M124.174 12.4229H111.753V24.8464H124.174V12.4229Z" fill="#D1FF27"/>
<path d="M136.595 12.4229H124.174V24.8464H136.595V12.4229Z" fill="#9DED00"/>
<path d="M74.5019 24.8467H62.0811V37.2703H74.5019V24.8467Z" fill="#9DED00"/>
<path d="M86.9221 24.8467H74.5012V37.2703H86.9221V24.8467Z" fill="#D1FF27"/>
<path d="M136.595 24.8467H124.174V37.2703H136.595V24.8467Z" fill="#D1FF27"/>
<path d="M149.016 24.8467H136.595V37.2703H149.016V24.8467Z" fill="#9DED00"/>
<path d="M74.5019 37.2706H62.0811V49.6941H74.5019V37.2706Z" fill="#9DED00"/>
<path d="M86.9221 37.2706H74.5012V49.6941H86.9221V37.2706Z" fill="white"/>
<path d="M136.595 37.2706H124.174V49.6941H136.595V37.2706Z" fill="#1F1F1F"/>
<path d="M149.016 37.2706H136.595V49.6941H149.016V37.2706Z" fill="#9DED00"/>
<path d="M74.5019 49.6816H62.0811V62.1052H74.5019V49.6816Z" fill="#9DED00"/>
<path d="M86.9221 49.6816H74.5012V62.1052H86.9221V49.6816Z" fill="#D1FF27"/>
<path d="M136.595 49.6816H124.174V62.1052H136.595V49.6816Z" fill="#D1FF27"/>
<path d="M149.016 49.6816H136.595V62.1052H149.016V49.6816Z" fill="#9DED00"/>
<path d="M86.9221 62.1055H74.5012V74.529H86.9221V62.1055Z" fill="#9DED00"/>
<path d="M99.3433 62.1055H86.9224V74.529H99.3433V62.1055Z" fill="#D1FF27"/>
<path d="M111.764 62.1055H99.3434V74.529H111.764V62.1055Z" fill="#D1FF27"/>
<path d="M124.174 62.1055H111.753V74.529H124.174V62.1055Z" fill="#D1FF27"/>
<path d="M136.595 62.1055H124.174V74.529H136.595V62.1055Z" fill="#9DED00"/>
<path d="M99.3433 74.5293H86.9224V86.9528H99.3433V74.5293Z" fill="#9DED00"/>
<path d="M111.764 74.5293H99.3434V86.9528H111.764V74.5293Z" fill="#9DED00"/>
<path d="M124.174 74.5293H111.753V86.9528H124.174V74.5293Z" fill="#9DED00"/>
</svg>
