<svg width="150" height="150" viewBox="0 0 150 150" fill="none" xmlns="http://www.w3.org/2000/svg">
<path d="M136.595 3.05176e-05H124.174V12.4236H136.595V3.05176e-05Z" fill="#A7F70A"/>
<path d="M149.016 3.05176e-05H136.595V12.4236H149.016V3.05176e-05Z" fill="#A7F70A"/>
<path d="M99.344 12.423H86.9231V24.8465H99.344V12.423Z" fill="#F1F624"/>
<path d="M111.753 12.423H99.3324V24.8465H111.753V12.423Z" fill="#D1FF27"/>
<path d="M124.174 12.423H111.753V24.8465H124.174V12.423Z" fill="#A7F70A"/>
<path d="M136.595 12.423H124.174V24.8465H136.595V12.423Z" fill="#9DED00"/>
<path d="M149.016 12.423H136.595V24.8465H149.016V12.423Z" fill="#A7F70A"/>
<path d="M86.9229 24.8468H74.502V37.2703H86.9229V24.8468Z" fill="#F1F624"/>
<path d="M99.344 24.8468H86.9231V37.2703H99.344V24.8468Z" fill="white"/>
<path d="M111.753 24.8468H99.3324V37.2703H111.753V24.8468Z" fill="#A7F70A"/>
<path d="M124.174 24.8468H111.753V37.2703H124.174V24.8468Z" fill="white"/>
<path d="M136.595 24.8468H124.174V37.2703H136.595V24.8468Z" fill="#A7F70A"/>
<path d="M86.9229 37.2706H74.502V49.6941H86.9229V37.2706Z" fill="#D1FF27"/>
<path d="M99.344 37.2706H86.9231V49.6941H99.344V37.2706Z" fill="#1F1F1F"/>
<path d="M111.753 37.2706H99.3324V49.6941H111.753V37.2706Z" fill="#9DED00"/>
<path d="M124.174 37.2706H111.753V49.6941H124.174V37.2706Z" fill="#1F1F1F"/>
<path d="M136.595 37.2706H124.174V49.6941H136.595V37.2706Z" fill="#D1FF27"/>
<path d="M86.9229 49.6817H74.502V62.1052H86.9229V49.6817Z" fill="#A7F70A"/>
<path d="M99.344 49.6817H86.9231V62.1052H99.344V49.6817Z" fill="#9DED00"/>
<path d="M111.753 49.6817H99.3324V62.1052H111.753V49.6817Z" fill="#A7F70A"/>
<path d="M124.174 49.6817H111.753V62.1052H124.174V49.6817Z" fill="#D1FF27"/>
<path d="M136.595 49.6817H124.174V62.1052H136.595V49.6817Z" fill="#F1F624"/>
<path d="M74.5027 62.1055H62.0818V74.5291H74.5027V62.1055Z" fill="#A7F70A"/>
<path d="M86.9229 62.1055H74.502V74.5291H86.9229V62.1055Z" fill="#9DED00"/>
<path d="M99.344 62.1055H86.9231V74.5291H99.344V62.1055Z" fill="#A7F70A"/>
<path d="M111.753 62.1055H99.3324V74.5291H111.753V62.1055Z" fill="#D1FF27"/>
<path d="M124.174 62.1055H111.753V74.5291H124.174V62.1055Z" fill="#F1F624"/>
<path d="M37.2513 74.5294H24.8304V86.9529H37.2513V74.5294Z" fill="#F1F624"/>
<path d="M49.6724 74.5294H37.2515V86.9529H49.6724V74.5294Z" fill="#D1FF27"/>
<path d="M62.0935 74.5294H49.6726V86.9529H62.0935V74.5294Z" fill="#A7F70A"/>
<path d="M74.5027 74.5294H62.0818V86.9529H74.5027V74.5294Z" fill="#9DED00"/>
<path d="M86.9229 74.5294H74.502V86.9529H86.9229V74.5294Z" fill="#A7F70A"/>
<path d="M24.8429 86.9414H12.422V99.3649H24.8429V86.9414Z" fill="#F1F624"/>
<path d="M37.2513 86.9414H24.8304V99.3649H37.2513V86.9414Z" fill="#D1FF27"/>
<path d="M49.6724 86.9414H37.2515V99.3649H49.6724V86.9414Z" fill="#A7F70A"/>
<path d="M62.0935 86.9414H49.6726V99.3649H62.0935V86.9414Z" fill="#9DED00"/>
<path d="M74.5027 86.9414H62.0818V99.3649H74.5027V86.9414Z" fill="#A7F70A"/>
<path d="M24.8429 99.3652H12.422V111.789H24.8429V99.3652Z" fill="#D1FF27"/>
<path d="M37.2513 99.3652H24.8304V111.789H37.2513V99.3652Z" fill="#A7F70A"/>
<path d="M49.6724 99.3652H37.2515V111.789H49.6724V99.3652Z" fill="#9DED00"/>
<path d="M62.0935 99.3652H49.6726V111.789H62.0935V99.3652Z" fill="#A7F70A"/>
<path d="M74.5027 99.3652H62.0818V111.789H74.5027V99.3652Z" fill="#D1FF27"/>
<path d="M24.8429 111.787H12.422V124.211H24.8429V111.787Z" fill="#A7F70A"/>
<path d="M37.2513 111.787H24.8304V124.211H37.2513V111.787Z" fill="#9DED00"/>
<path d="M49.6724 111.787H37.2515V124.211H49.6724V111.787Z" fill="#A7F70A"/>
<path d="M62.0935 111.787H49.6726V124.211H62.0935V111.787Z" fill="#D1FF27"/>
<path d="M74.5027 111.787H62.0818V124.211H74.5027V111.787Z" fill="#F1F624"/>
<path d="M12.4209 124.199H0V136.623H12.4209V124.199Z" fill="#A7F70A"/>
<path d="M24.8429 124.199H12.422V136.623H24.8429V124.199Z" fill="#9DED00"/>
<path d="M37.2513 124.199H24.8304V136.623H37.2513V124.199Z" fill="#A7F70A"/>
<path d="M49.6724 124.199H37.2515V136.623H49.6724V124.199Z" fill="#D1FF27"/>
<path d="M62.0935 124.199H49.6726V136.623H62.0935V124.199Z" fill="#F1F624"/>
<path d="M12.4209 136.623H0V149.047H12.4209V136.623Z" fill="#A7F70A"/>
<path d="M24.8429 136.623H12.422V149.047H24.8429V136.623Z" fill="#A7F70A"/>
</svg>
