<svg width="86" height="20" viewBox="0 0 86 20" fill="none" xmlns="http://www.w3.org/2000/svg">
<g clip-path="url(#clip0_8_6)">
<path d="M2.86233 0H0V2.85714H2.86233V0Z" fill="#FFDFE5"/>
<path d="M5.72467 0H2.86234V2.85714H5.72467V0Z" fill="#FFB5D0"/>
<path d="M2.86233 2.85714H0V5.71429H2.86233V2.85714Z" fill="#FFB5D0"/>
<path d="M8.587 0H5.72467V2.85714H8.587V0Z" fill="#FF80B8"/>
<path d="M5.72467 2.85714H2.86234V5.71429H5.72467V2.85714Z" fill="#FF80B8"/>
<path d="M2.86233 5.71429H0V8.57143H2.86233V5.71429Z" fill="#FF80B8"/>
<path d="M11.4493 0H8.58701V2.85714H11.4493V0Z" fill="#FF5A92"/>
<path d="M8.587 2.85714H5.72467V5.71429H8.587V2.85714Z" fill="#FF5A92"/>
<path d="M5.72467 5.71429H2.86234V8.57143H5.72467V5.71429Z" fill="#FF5A92"/>
<path d="M11.4493 5.71429H8.58701V8.57143H11.4493V5.71429Z" fill="#1F1F1F"/>
<path d="M14.3117 5.71429H11.4493V8.57143H14.3117V5.71429Z" fill="white"/>
<path d="M22.8987 5.71429H20.0363V8.57143H22.8987V5.71429Z" fill="#1F1F1F"/>
<path d="M25.761 5.71429H22.8987V8.57143H25.761V5.71429Z" fill="white"/>
<path d="M14.3117 0H11.4493V2.85714H14.3117V0Z" fill="#FF4D6B"/>
<path d="M11.4493 2.85714H8.58701V5.71429H11.4493V2.85714Z" fill="#FF4D6B"/>
<path d="M8.587 5.71429H5.72467V8.57143H8.587V5.71429Z" fill="#FF4D6B"/>
<path d="M5.72467 8.57143H2.86234V11.4286H5.72467V8.57143Z" fill="#FF4D6B"/>
<path d="M17.174 0H14.3117V2.85714H17.174V0Z" fill="#FF3A3C"/>
<path d="M14.3117 2.85714H11.4493V5.71429H14.3117V2.85714Z" fill="#FF3A3C"/>
<path d="M8.587 8.57143H5.72467V11.4286H8.587V8.57143Z" fill="#FF3A3C"/>
<path d="M5.72467 11.4286H2.86234V14.2857H5.72467V11.4286Z" fill="#FF3A3C"/>
<path d="M20.0363 0H17.174V2.85714H20.0363V0Z" fill="#FF5100"/>
<path d="M17.174 2.85714H14.3117V5.71429H17.174V2.85714Z" fill="#FF5100"/>
<path d="M11.4493 8.57143H8.58701V11.4286H11.4493V8.57143Z" fill="#FF5100"/>
<path d="M8.587 11.4286H5.72467V14.2857H8.587V11.4286Z" fill="#FF5100"/>
<path d="M22.8987 0H20.0363V2.85714H22.8987V0Z" fill="#FF7416"/>
<path d="M20.0363 2.85714H17.174V5.71429H20.0363V2.85714Z" fill="#FF7416"/>
<path d="M17.174 5.71429H14.3117V8.57143H17.174V5.71429Z" fill="#FF7416"/>
<path d="M14.3117 8.57143H11.4493V11.4286H14.3117V8.57143Z" fill="#FF7416"/>
<path d="M11.4493 11.4286H8.58701V14.2857H11.4493V11.4286Z" fill="#FF7416"/>
<path d="M8.587 14.2857H5.72467V17.1429H8.587V14.2857Z" fill="#FF7416"/>
<path d="M25.761 0H22.8987V2.85714H25.761V0Z" fill="#FFA727"/>
<path d="M22.8987 2.85714H20.0363V5.71429H22.8987V2.85714Z" fill="#FFA727"/>
<path d="M20.0363 5.71429H17.174V8.57143H20.0363V5.71429Z" fill="#FFA727"/>
<path d="M17.174 8.57143H14.3117V11.4286H17.174V8.57143Z" fill="#FFA727"/>
<path d="M14.3117 11.4286H11.4493V14.2857H14.3117V11.4286Z" fill="#FFA727"/>
<path d="M11.4493 14.2857H8.58701V17.1429H11.4493V14.2857Z" fill="#FFA727"/>
<path d="M28.6234 0H25.761V2.85714H28.6234V0Z" fill="#FFCD1A"/>
<path d="M25.761 2.85714H22.8987V5.71429H25.761V2.85714Z" fill="#FFCD1A"/>
<path d="M20.0363 8.57143H17.174V11.4286H20.0363V8.57143Z" fill="#FFCD1A"/>
<path d="M17.174 11.4286H14.3117V14.2857H17.174V11.4286Z" fill="#FFCD1A"/>
<path d="M14.3117 14.2857H11.4493V17.1429H14.3117V14.2857Z" fill="#FFCD1A"/>
<path d="M31.4857 11.4286H28.6234V14.2857H31.4857V11.4286Z" fill="#90DA00"/>
<path d="M28.6234 14.2857H25.761V17.1429H28.6234V14.2857Z" fill="#90DA00"/>
<path d="M31.4857 0H28.6234V2.85714H31.4857V0Z" fill="#F1F624"/>
<path d="M28.6234 2.85714H25.761V5.71429H28.6234V2.85714Z" fill="#F1F624"/>
<path d="M22.8987 8.57143H20.0363V11.4286H22.8987V8.57143Z" fill="#F1F624"/>
<path d="M20.0363 11.4286H17.174V14.2857H20.0363V11.4286Z" fill="#F1F624"/>
<path d="M17.174 14.2857H14.3117V17.1429H17.174V14.2857Z" fill="#F1F624"/>
<path d="M14.3117 17.1429H11.4493V20H14.3117V17.1429Z" fill="#F1F624"/>
<path d="M34.3466 0H31.4842V2.85714H34.3466V0Z" fill="#D1FF27"/>
<path d="M31.4857 2.85714H28.6234V5.71429H31.4857V2.85714Z" fill="#D1FF27"/>
<path d="M28.6234 5.71429H25.761V8.57143H28.6234V5.71429Z" fill="#D1FF27"/>
<path d="M25.761 8.57143H22.8987V11.4286H25.761V8.57143Z" fill="#D1FF27"/>
<path d="M22.8987 11.4286H20.0363V14.2857H22.8987V11.4286Z" fill="#D1FF27"/>
<path d="M20.0363 14.2857H17.174V17.1429H20.0363V14.2857Z" fill="#D1FF27"/>
<path d="M17.174 17.1429H14.3117V20H17.174V17.1429Z" fill="#D1FF27"/>
<path d="M34.3466 2.85714H31.4842V5.71429H34.3466V2.85714Z" fill="#A7F70A"/>
<path d="M31.4857 5.71429H28.6234V8.57143H31.4857V5.71429Z" fill="#A7F70A"/>
<path d="M28.6234 8.57143H25.761V11.4286H28.6234V8.57143Z" fill="#A7F70A"/>
<path d="M25.761 11.4286H22.8987V14.2857H25.761V11.4286Z" fill="#A7F70A"/>
<path d="M22.8987 14.2857H20.0363V17.1429H22.8987V14.2857Z" fill="#A7F70A"/>
<path d="M20.0363 17.1429H17.174V20H20.0363V17.1429Z" fill="#A7F70A"/>
<path d="M34.3466 5.71429H31.4842V8.57143H34.3466V5.71429Z" fill="#9DED00"/>
<path d="M31.4857 8.57143H28.6234V11.4286H31.4857V8.57143Z" fill="#9DED00"/>
<path d="M28.6234 11.4286H25.761V14.2857H28.6234V11.4286Z" fill="#9DED00"/>
<path d="M25.761 14.2857H22.8987V17.1429H25.761V14.2857Z" fill="#9DED00"/>
<path d="M22.8987 17.1429H20.0363V20H22.8987V17.1429Z" fill="#9DED00"/>
<path d="M41.8602 14.9985V5H44.6875V6.18951C45.0102 5.74636 45.4308 5.3965 45.9492 5.1414C46.4677 4.8863 47.0635 4.75802 47.7367 4.75802C48.4903 4.75802 49.1401 4.90671 49.6863 5.20117C50.231 5.49709 50.6662 5.92711 50.989 6.49125C51.3657 5.95335 51.8579 5.53061 52.4639 5.22158C53.07 4.91254 53.7432 4.75802 54.4836 4.75802C55.817 4.75802 56.829 5.15744 57.5241 5.95773C58.2178 6.75802 58.5639 7.90962 58.5639 9.41545V15H55.7571V9.67784C55.7571 8.8586 55.6023 8.23032 55.2927 7.793C54.9831 7.35714 54.4924 7.13849 53.8177 7.13849C53.143 7.13849 52.629 7.37755 52.2317 7.85423C51.8345 8.33091 51.6359 8.99271 51.6359 9.83965V15H48.8291V9.67784C48.8291 8.8586 48.667 8.23032 48.3442 7.793C48.0215 7.35714 47.522 7.13849 46.8503 7.13849C46.1785 7.13849 45.682 7.37755 45.2847 7.85423C44.8875 8.33091 44.6889 8.99271 44.6889 9.83965V15H41.8616L41.8602 14.9985Z" fill="#1F1F1F"/>
<path d="M63.3481 5H60.5208V14.9985H63.3481V5Z" fill="#1F1F1F"/>
<path d="M63.2678 0.785713H60.642V3.4067H63.2678V0.785713Z" fill="#FF7416"/>
<path d="M69.5898 15.2405C68.2433 15.2405 67.1393 14.9257 66.2777 14.293C65.416 13.6618 64.9312 12.8353 64.8231 11.8134H67.7117C67.8052 12.2026 68.0345 12.516 68.3981 12.7507C68.7617 12.9854 69.1926 13.1035 69.6905 13.1035C70.2426 13.1035 70.6632 13.0058 70.9523 12.8105C71.2415 12.6152 71.386 12.3775 71.386 12.0948C71.386 11.8659 71.278 11.6822 71.0633 11.5408C70.8486 11.3994 70.4777 11.3017 69.952 11.2478C69.7636 11.2216 69.5036 11.1808 69.1736 11.1268C68.8435 11.0729 68.5777 11.0262 68.3762 10.9854C67.811 10.8775 67.2955 10.6997 66.8311 10.4504C66.3667 10.2026 66.0002 9.87318 65.73 9.4621C65.4598 9.05248 65.3269 8.55102 65.3269 7.96064C65.3269 7.05977 65.6628 6.30029 66.3361 5.68221C67.0093 5.06414 67.9994 4.7551 69.305 4.7551C70.6106 4.7551 71.665 5.04373 72.4258 5.62245C73.1867 6.20116 73.6146 7 73.708 8.02186H70.9815C70.9406 7.65889 70.7595 7.38338 70.4353 7.19533C70.1126 7.00729 69.7417 6.91253 69.3255 6.91253C68.8129 6.91253 68.4302 7 68.1747 7.17493C67.9191 7.34985 67.7906 7.56414 67.7906 7.81924C67.7906 8.23615 68.2083 8.51749 69.0436 8.66618C69.1648 8.6793 69.3357 8.70408 69.5591 8.73615C69.7811 8.76968 70.0104 8.80321 70.2455 8.83673C70.4806 8.87026 70.6661 8.90087 70.8004 8.92711C71.2035 8.98105 71.5978 9.07143 71.9819 9.19971C72.366 9.32799 72.7091 9.49854 73.0114 9.71428C73.3137 9.93003 73.5532 10.2114 73.7285 10.5612C73.9037 10.9111 73.9914 11.3411 73.9914 11.8513C73.9914 12.5233 73.8234 13.1152 73.4861 13.6254C73.1487 14.137 72.6551 14.5321 72.0009 14.8149C71.3466 15.0977 70.5434 15.2376 69.5869 15.2376L69.5898 15.2405Z" fill="#1F1F1F"/>
<path d="M80.6083 15.2405C79.5992 15.2405 78.6865 15.0189 77.8716 14.5758C77.0567 14.1327 76.4112 13.5146 75.9322 12.7201C75.4547 11.9271 75.2151 11.0204 75.2151 9.99854C75.2151 8.97667 75.4547 8.05248 75.9322 7.26676C76.4097 6.48105 77.0596 5.86589 77.8818 5.42128C78.7025 4.97813 79.6123 4.75656 80.6083 4.75656C81.6043 4.75656 82.5302 4.97813 83.3451 5.42128C84.1585 5.86443 84.8054 6.47959 85.283 7.26676C85.7605 8.05248 86 8.96355 86 9.99854C86 11.0335 85.7605 11.9271 85.283 12.7201C84.8054 13.5131 84.1585 14.1312 83.3451 14.5758C82.5302 15.0189 81.6189 15.2405 80.6083 15.2405ZM80.6083 12.8017C81.0654 12.8017 81.4831 12.6982 81.8599 12.4898C82.2366 12.2813 82.536 11.9694 82.758 11.5525C82.98 11.137 83.0909 10.6181 83.0909 10C83.0909 9.38192 82.977 8.86443 82.7478 8.44752C82.5185 8.03207 82.2191 7.71866 81.8496 7.5102C81.4787 7.30175 81.0713 7.19825 80.6273 7.19825C80.1833 7.19825 79.7525 7.30175 79.3758 7.5102C78.999 7.71866 78.6952 8.02769 78.4674 8.43732C78.2381 8.84694 78.1242 9.3688 78.1242 10C78.1242 10.6312 78.2352 11.1356 78.4572 11.5525C78.6792 11.9694 78.9785 12.2813 79.3553 12.4898C79.7321 12.6982 80.1498 12.8017 80.6069 12.8017H80.6083Z" fill="#1F1F1F"/>
</g>
<defs>
<clipPath id="clip0_8_6">
<rect width="86" height="20" fill="white"/>
</clipPath>
</defs>
</svg>
