<svg preserveAspectRatio="xMidYMid meet" width="100%" height="100%" overflow="visible" style="display: block;" viewBox="0 0 34.3467 20" fill="none" xmlns="http://www.w3.org/2000/svg">
<g id="Group">
<path id="Vector" d="M2.86233 0H0V2.85714H2.86233V0Z" fill="#FFDFE5"/>
<path id="Vector_2" d="M5.72467 0H2.86233V2.85714H5.72467V0Z" fill="#FFB5D0"/>
<path id="Vector_3" d="M2.86233 2.85714H0V5.71429H2.86233V2.85714Z" fill="#FFB5D0"/>
<path id="Vector_4" d="M8.587 0H5.72467V2.85714H8.587V0Z" fill="#FF80B8"/>
<path id="Vector_5" d="M5.72467 2.85714H2.86233V5.71429H5.72467V2.85714Z" fill="#FF80B8"/>
<path id="Vector_6" d="M2.86233 5.71429H0V8.57143H2.86233V5.71429Z" fill="#FF80B8"/>
<path id="Vector_7" d="M11.4493 0H8.587V2.85714H11.4493V0Z" fill="#FF5A92"/>
<path id="Vector_8" d="M8.587 2.85714H5.72467V5.71429H8.587V2.85714Z" fill="#FF5A92"/>
<path id="Vector_9" d="M5.72467 5.71429H2.86233V8.57143H5.72467V5.71429Z" fill="#FF5A92"/>
<path id="Vector_10" d="M11.4493 5.71429H8.587V8.57143H11.4493V5.71429Z" fill="#1F1F1F"/>
<path id="Vector_11" d="M14.3117 5.71429H11.4493V8.57143H14.3117V5.71429Z" fill="white"/>
<path id="Vector_12" d="M22.8987 5.71429H20.0363V8.57143H22.8987V5.71429Z" fill="#1F1F1F"/>
<path id="Vector_13" d="M25.761 5.71429H22.8987V8.57143H25.761V5.71429Z" fill="white"/>
<path id="Vector_14" d="M14.3117 0H11.4493V2.85714H14.3117V0Z" fill="#FF4D6B"/>
<path id="Vector_15" d="M11.4493 2.85714H8.587V5.71429H11.4493V2.85714Z" fill="#FF4D6B"/>
<path id="Vector_16" d="M8.587 5.71429H5.72467V8.57143H8.587V5.71429Z" fill="#FF4D6B"/>
<path id="Vector_17" d="M5.72467 8.57143H2.86233V11.4286H5.72467V8.57143Z" fill="#FF4D6B"/>
<path id="Vector_18" d="M17.174 0H14.3117V2.85714H17.174V0Z" fill="#FF3A3C"/>
<path id="Vector_19" d="M14.3117 2.85714H11.4493V5.71429H14.3117V2.85714Z" fill="#FF3A3C"/>
<path id="Vector_20" d="M8.587 8.57143H5.72467V11.4286H8.587V8.57143Z" fill="#FF3A3C"/>
<path id="Vector_21" d="M5.72467 11.4286H2.86233V14.2857H5.72467V11.4286Z" fill="#FF3A3C"/>
<path id="Vector_22" d="M20.0363 0H17.174V2.85714H20.0363V0Z" fill="#FF5100"/>
<path id="Vector_23" d="M17.174 2.85714H14.3117V5.71429H17.174V2.85714Z" fill="#FF5100"/>
<path id="Vector_24" d="M11.4493 8.57143H8.587V11.4286H11.4493V8.57143Z" fill="#FF5100"/>
<path id="Vector_25" d="M8.587 11.4286H5.72467V14.2857H8.587V11.4286Z" fill="#FF5100"/>
<path id="Vector_26" d="M22.8987 0H20.0363V2.85714H22.8987V0Z" fill="#FF7416"/>
<path id="Vector_27" d="M20.0363 2.85714H17.174V5.71429H20.0363V2.85714Z" fill="#FF7416"/>
<path id="Vector_28" d="M17.174 5.71429H14.3117V8.57143H17.174V5.71429Z" fill="#FF7416"/>
<path id="Vector_29" d="M14.3117 8.57143H11.4493V11.4286H14.3117V8.57143Z" fill="#FF7416"/>
<path id="Vector_30" d="M11.4493 11.4286H8.587V14.2857H11.4493V11.4286Z" fill="#FF7416"/>
<path id="Vector_31" d="M8.587 14.2857H5.72467V17.1429H8.587V14.2857Z" fill="#FF7416"/>
<path id="Vector_32" d="M25.761 0H22.8987V2.85714H25.761V0Z" fill="#FFA727"/>
<path id="Vector_33" d="M22.8987 2.85714H20.0363V5.71429H22.8987V2.85714Z" fill="#FFA727"/>
<path id="Vector_34" d="M20.0363 5.71429H17.174V8.57143H20.0363V5.71429Z" fill="#FFA727"/>
<path id="Vector_35" d="M17.174 8.57143H14.3117V11.4286H17.174V8.57143Z" fill="#FFA727"/>
<path id="Vector_36" d="M14.3117 11.4286H11.4493V14.2857H14.3117V11.4286Z" fill="#FFA727"/>
<path id="Vector_37" d="M11.4493 14.2857H8.587V17.1429H11.4493V14.2857Z" fill="#FFA727"/>
<path id="Vector_38" d="M28.6233 0H25.761V2.85714H28.6233V0Z" fill="#FFCD1A"/>
<path id="Vector_39" d="M25.761 2.85714H22.8987V5.71429H25.761V2.85714Z" fill="#FFCD1A"/>
<path id="Vector_40" d="M20.0363 8.57143H17.174V11.4286H20.0363V8.57143Z" fill="#FFCD1A"/>
<path id="Vector_41" d="M17.174 11.4286H14.3117V14.2857H17.174V11.4286Z" fill="#FFCD1A"/>
<path id="Vector_42" d="M14.3117 14.2857H11.4493V17.1429H14.3117V14.2857Z" fill="#FFCD1A"/>
<path id="Vector_43" d="M31.4857 11.4286H28.6233V14.2857H31.4857V11.4286Z" fill="#90DA00"/>
<path id="Vector_44" d="M28.6233 14.2857H25.761V17.1429H28.6233V14.2857Z" fill="#90DA00"/>
<path id="Vector_45" d="M31.4857 0H28.6233V2.85714H31.4857V0Z" fill="#F1F624"/>
<path id="Vector_46" d="M28.6233 2.85714H25.761V5.71429H28.6233V2.85714Z" fill="#F1F624"/>
<path id="Vector_47" d="M22.8987 8.57143H20.0363V11.4286H22.8987V8.57143Z" fill="#F1F624"/>
<path id="Vector_48" d="M20.0363 11.4286H17.174V14.2857H20.0363V11.4286Z" fill="#F1F624"/>
<path id="Vector_49" d="M17.174 14.2857H14.3117V17.1429H17.174V14.2857Z" fill="#F1F624"/>
<path id="Vector_50" d="M14.3117 17.1429H11.4493V20H14.3117V17.1429Z" fill="#F1F624"/>
<path id="Vector_51" d="M34.3466 0H31.4842V2.85714H34.3466V0Z" fill="#D1FF27"/>
<path id="Vector_52" d="M31.4857 2.85714H28.6233V5.71429H31.4857V2.85714Z" fill="#D1FF27"/>
<path id="Vector_53" d="M28.6233 5.71429H25.761V8.57143H28.6233V5.71429Z" fill="#D1FF27"/>
<path id="Vector_54" d="M25.761 8.57143H22.8987V11.4286H25.761V8.57143Z" fill="#D1FF27"/>
<path id="Vector_55" d="M22.8987 11.4286H20.0363V14.2857H22.8987V11.4286Z" fill="#D1FF27"/>
<path id="Vector_56" d="M20.0363 14.2857H17.174V17.1429H20.0363V14.2857Z" fill="#D1FF27"/>
<path id="Vector_57" d="M17.174 17.1429H14.3117V20H17.174V17.1429Z" fill="#D1FF27"/>
<path id="Vector_58" d="M34.3466 2.85714H31.4842V5.71429H34.3466V2.85714Z" fill="#A7F70A"/>
<path id="Vector_59" d="M31.4857 5.71429H28.6233V8.57143H31.4857V5.71429Z" fill="#A7F70A"/>
<path id="Vector_60" d="M28.6233 8.57143H25.761V11.4286H28.6233V8.57143Z" fill="#A7F70A"/>
<path id="Vector_61" d="M25.761 11.4286H22.8987V14.2857H25.761V11.4286Z" fill="#A7F70A"/>
<path id="Vector_62" d="M22.8987 14.2857H20.0363V17.1429H22.8987V14.2857Z" fill="#A7F70A"/>
<path id="Vector_63" d="M20.0363 17.1429H17.174V20H20.0363V17.1429Z" fill="#A7F70A"/>
<path id="Vector_64" d="M34.3466 5.71429H31.4842V8.57143H34.3466V5.71429Z" fill="#9DED00"/>
<path id="Vector_65" d="M31.4857 8.57143H28.6233V11.4286H31.4857V8.57143Z" fill="#9DED00"/>
<path id="Vector_66" d="M28.6233 11.4286H25.761V14.2857H28.6233V11.4286Z" fill="#9DED00"/>
<path id="Vector_67" d="M25.761 14.2857H22.8987V17.1429H25.761V14.2857Z" fill="#9DED00"/>
<path id="Vector_68" d="M22.8987 17.1429H20.0363V20H22.8987V17.1429Z" fill="#9DED00"/>
</g>
</svg>
