<svg preserveAspectRatio="none" width="100%" height="100%" overflow="visible" style="display: block;" viewBox="0 0 44.1399 14.4548" fill="none" xmlns="http://www.w3.org/2000/svg">
<g id="Group">
<path id="Vector" d="M0 14.2128V4.21429H2.82728V5.40379C3.15003 4.96064 3.57062 4.61079 4.08905 4.35569C4.60748 4.10058 5.20331 3.9723 5.87655 3.9723C6.6301 3.9723 7.27997 4.12099 7.82615 4.41545C8.37087 4.71137 8.80606 5.1414 9.1288 5.70554C9.50558 5.16764 9.99772 4.7449 10.6038 4.43586C11.2098 4.12682 11.8831 3.9723 12.6235 3.9723C13.9568 3.9723 14.9688 4.37172 15.664 5.17201C16.3577 5.9723 16.7038 7.12391 16.7038 8.62974V14.2143H13.8969V8.89213C13.8969 8.07289 13.7421 7.44461 13.4325 7.00729C13.1229 6.57143 12.6322 6.35277 11.9575 6.35277C11.2829 6.35277 10.7688 6.59184 10.3716 7.06851C9.97436 7.54519 9.77574 8.207 9.77574 9.05394V14.2143H6.9689V8.89213C6.9689 8.07289 6.80681 7.44461 6.48406 7.00729C6.16132 6.57143 5.66187 6.35277 4.9901 6.35277C4.31833 6.35277 3.8218 6.59184 3.42458 7.06851C3.02735 7.54519 2.82874 8.207 2.82874 9.05394V14.2143H0.00145734L0 14.2128Z" fill="#1F1F1F"/>
<path id="Vector_2" d="M21.488 4.21429H18.6607V14.2128H21.488V4.21429Z" fill="#1F1F1F"/>
<path id="Vector_3" d="M21.4076 1.50439e-08H18.7819V2.62099H21.4076V1.50439e-08Z" fill="#FF7416"/>
<path id="Vector_4" d="M27.7296 14.4548C26.3831 14.4548 25.2791 14.1399 24.4175 13.5073C23.5558 12.8761 23.071 12.0496 22.9629 11.0277H25.8516C25.945 11.4169 26.1743 11.7303 26.5379 11.965C26.9016 12.1997 27.3324 12.3178 27.8304 12.3178C28.3824 12.3178 28.803 12.2201 29.0921 12.0248C29.3813 11.8294 29.5259 11.5918 29.5259 11.309C29.5259 11.0802 29.4178 10.8965 29.2031 10.7551C28.9884 10.6137 28.6175 10.516 28.0918 10.4621C27.9034 10.4359 27.6434 10.395 27.3134 10.3411C26.9833 10.2872 26.7176 10.2405 26.516 10.1997C25.9509 10.0918 25.4353 9.91399 24.9709 9.66472C24.5065 9.41691 24.14 9.08746 23.8698 8.67639C23.5997 8.26676 23.4668 7.76531 23.4668 7.17493C23.4668 6.27405 23.8026 5.51458 24.4759 4.8965C25.1491 4.27843 26.1392 3.96939 27.4448 3.96939C28.7504 3.96939 29.8048 4.25802 30.5656 4.83674C31.3265 5.41545 31.7544 6.21429 31.8478 7.23615H29.1213C29.0804 6.87318 28.8994 6.59767 28.5751 6.40962C28.2524 6.22157 27.8815 6.12682 27.4653 6.12682C26.9527 6.12682 26.5701 6.21429 26.3145 6.38921C26.0589 6.56414 25.9304 6.77843 25.9304 7.03353C25.9304 7.45044 26.3481 7.73178 27.1834 7.88047C27.3046 7.89359 27.4755 7.91837 27.6989 7.95044C27.9209 7.98397 28.1502 8.01749 28.3853 8.05102C28.6204 8.08455 28.8059 8.11516 28.9402 8.1414C29.3433 8.19534 29.7376 8.28571 30.1217 8.41399C30.5058 8.54227 30.849 8.71283 31.1513 8.92857C31.4535 9.14432 31.693 9.42566 31.8683 9.77551C32.0435 10.1254 32.1312 10.5554 32.1312 11.0656C32.1312 11.7376 31.9632 12.3294 31.6259 12.8397C31.2885 13.3513 30.7949 13.7464 30.1407 14.0292C29.4864 14.312 28.6832 14.4519 27.7267 14.4519L27.7296 14.4548Z" fill="#1F1F1F"/>
<path id="Vector_5" d="M38.7481 14.4548C37.739 14.4548 36.8263 14.2332 36.0114 13.7901C35.1965 13.3469 34.551 12.7289 34.072 11.9344C33.5945 11.1414 33.355 10.2347 33.355 9.21283C33.355 8.19096 33.5945 7.26676 34.072 6.48105C34.5495 5.69534 35.1994 5.08017 36.0216 4.63557C36.8423 4.19242 37.7521 3.97085 38.7481 3.97085C39.7441 3.97085 40.67 4.19242 41.4849 4.63557C42.2983 5.07872 42.9452 5.69388 43.4228 6.48105C43.9003 7.26676 44.1398 8.17784 44.1398 9.21283C44.1398 10.2478 43.9003 11.1414 43.4228 11.9344C42.9452 12.7274 42.2983 13.3455 41.4849 13.7901C40.67 14.2332 39.7587 14.4548 38.7481 14.4548ZM38.7481 12.016C39.2052 12.016 39.6229 11.9125 39.9997 11.7041C40.3764 11.4956 40.6758 11.1837 40.8978 10.7668C41.1198 10.3513 41.2308 9.83236 41.2308 9.21429C41.2308 8.59621 41.1169 8.07872 40.8876 7.66181C40.6583 7.24636 40.3589 6.93294 39.9894 6.72449C39.6185 6.51604 39.2111 6.41254 38.7671 6.41254C38.3232 6.41254 37.8923 6.51604 37.5156 6.72449C37.1388 6.93294 36.835 7.24198 36.6072 7.6516C36.3779 8.06122 36.264 8.58309 36.264 9.21429C36.264 9.84548 36.375 10.3499 36.597 10.7668C36.819 11.1837 37.1183 11.4956 37.4951 11.7041C37.8719 11.9125 38.2896 12.016 38.7467 12.016H38.7481Z" fill="#1F1F1F"/>
</g>
</svg>
