<svg preserveAspectRatio="none" width="100%" height="100%" overflow="visible" style="display: block;" viewBox="0 0 52.8576 16.3043" fill="none" xmlns="http://www.w3.org/2000/svg">
<g id="Group">
<path id="Vector" d="M0 12.6059L2.07236 12.2452C2.36172 13.7581 3.49338 14.622 5.25296 14.622C6.86727 14.622 7.75877 13.8294 7.75877 12.7974C7.75877 11.7653 7.1086 11.3089 6.0238 11.1163L3.66208 10.6843C1.61431 10.3002 0.456884 9.14797 0.456884 7.32328C0.456884 5.2581 2.19186 3.72176 5.03506 3.72176C7.87827 3.72176 9.56521 4.9464 9.80536 6.96371L7.78103 7.42018C7.51628 6.22006 6.57674 5.37951 4.93783 5.37951C3.39615 5.37951 2.45661 6.05195 2.45661 7.22872C2.45661 8.23738 3.13139 8.71719 4.31225 8.93317L6.64937 9.36511C8.8178 9.77371 9.78193 10.8781 9.78193 12.6304C9.78193 14.7913 8.11959 16.3043 5.18032 16.3043C2.24106 16.3043 0.410021 14.9839 0 12.6071V12.6059Z" fill="#1F1F1F"/>
<path id="Vector_2" d="M10.7707 4.01012H13.0117V0H15.0595V4.01012H18.0714V5.69121H15.0595V12.3421C15.0595 13.7103 15.589 14.3103 16.8179 14.3103C17.3474 14.3103 17.6614 14.238 18.0714 14.1422V16.0148C17.5407 16.1584 17.0592 16.2308 16.2884 16.2308C13.6865 16.2308 13.0117 14.6466 13.0117 12.4133V5.69005H10.7707V4.00895V4.01012Z" fill="#1F1F1F"/>
<path id="Vector_3" d="M30.8793 12.6059L32.9516 12.2452C33.241 13.7581 34.3727 14.622 36.1322 14.622C37.7465 14.622 38.6381 13.8294 38.6381 12.7974C38.6381 11.7653 37.9879 11.3089 36.9031 11.1163L34.5414 10.6843C32.4936 10.3002 31.3362 9.14797 31.3362 7.32328C31.3362 5.2581 33.0711 3.72176 35.9143 3.72176C38.7575 3.72176 40.4445 4.9464 40.6846 6.96371L38.6603 7.42018C38.3956 6.22006 37.456 5.37951 35.8171 5.37951C34.2754 5.37951 33.3359 6.05195 33.3359 7.22872C33.3359 8.23738 34.0107 8.71719 35.1915 8.93317L37.5287 9.36511C39.6971 9.77371 40.6612 10.8781 40.6612 12.6304C40.6612 14.7913 38.9989 16.3043 36.0596 16.3043C33.1203 16.3043 31.2893 14.9839 30.8793 12.6071V12.6059Z" fill="#1F1F1F"/>
<g id="Group_2">
<path id="Vector_4" d="M27.1938 4.02179V5.70172H21.6503V4.02179H27.1938Z" fill="#1F1F1F"/>
<path id="Vector_5" d="M21.6503 5.70172V7.38165H19.6014V5.70172H21.6503Z" fill="#1F1F1F"/>
<path id="Vector_6" d="M21.2426 9.90213V14.336H19.1937V9.90213H21.2426Z" fill="#1F1F1F"/>
<path id="Vector_7" d="M25.1448 14.336V16.016H21.2426V14.336H25.1448Z" fill="#1F1F1F"/>
<path id="Vector_8" d="M27.1938 12.6561V14.336H25.1448V12.6561H27.1938Z" fill="#1F1F1F"/>
<path id="Vector_9" d="M27.7971 8.2222V9.90213H21.2426V8.2222H27.7971Z" fill="#1F1F1F"/>
<path id="Vector_10" d="M29.2415 5.70289V16.0148H27.1926V5.70172H29.2415V5.70289Z" fill="#1F1F1F"/>
</g>
<g id="Group_3">
<path id="Vector_11" d="M44.9301 16.016H42.8824V0H44.9301V16.0148V16.016Z" fill="#1F1F1F"/>
<path id="Vector_12" d="M50.8087 4.01012V5.69005H46.9791V4.01012H50.8087Z" fill="#1F1F1F"/>
<path id="Vector_13" d="M46.9802 5.69005V7.36998H44.9313V5.69005H46.9802Z" fill="#1F1F1F"/>
<path id="Vector_14" d="M52.8576 5.69121V16.0148H50.8087V5.69005H52.8576V5.69121Z" fill="#1F1F1F"/>
</g>
</g>
</svg>
