<svg width="83" height="24" viewBox="0 0 83 24" fill="none" xmlns="http://www.w3.org/2000/svg">
<g clip-path="url(#clip0_8_829)">
<path d="M30.1424 14.615L32.2148 14.2543C32.5041 15.7673 33.6358 16.6312 35.3954 16.6312C37.0097 16.6312 37.9012 15.8385 37.9012 14.8065C37.9012 13.7745 37.251 13.318 36.1662 13.1254L33.8045 12.6934C31.7567 12.3094 30.5993 11.1571 30.5993 9.33241C30.5993 7.26723 32.3343 5.7309 35.1775 5.7309C38.0207 5.7309 39.7076 6.95553 39.9478 8.97285L37.9234 9.42931C37.6587 8.22919 36.7191 7.38864 35.0802 7.38864C33.5385 7.38864 32.599 8.06108 32.599 9.23785C32.599 10.2465 33.2738 10.7263 34.4546 10.9423L36.7918 11.3742C38.9602 11.7828 39.9243 12.8872 39.9243 14.6395C39.9243 16.8005 38.262 18.3134 35.3227 18.3134C32.3835 18.3134 30.5524 16.9931 30.1424 14.6162V14.615Z" fill="#1F1F1F"/>
<path d="M40.9131 6.01927H43.1541V2.00916H45.2019V6.01927H48.2138V7.70037H45.2019V14.3512C45.2019 15.7194 45.7314 16.3195 46.9603 16.3195C47.4898 16.3195 47.8038 16.2471 48.2138 16.1514V18.0239C47.6831 18.1675 47.2016 18.2399 46.4308 18.2399C43.8289 18.2399 43.1541 16.6557 43.1541 14.4224V7.6992H40.9131V6.01811V6.01927Z" fill="#1F1F1F"/>
<path d="M61.0217 14.615L63.094 14.2543C63.3834 15.7673 64.515 16.6312 66.2746 16.6312C67.8889 16.6312 68.7804 15.8385 68.7804 14.8065C68.7804 13.7745 68.1303 13.318 67.0455 13.1254L64.6837 12.6934C62.636 12.3094 61.4785 11.1571 61.4785 9.33241C61.4785 7.26723 63.2135 5.7309 66.0567 5.7309C68.8999 5.7309 70.5869 6.95553 70.827 8.97285L68.8027 9.42931C68.5379 8.22919 67.5984 7.38864 65.9595 7.38864C64.4178 7.38864 63.4783 8.06108 63.4783 9.23785C63.4783 10.2465 64.1531 10.7263 65.3339 10.9423L67.671 11.3742C69.8395 11.7828 70.8036 12.8872 70.8036 14.6395C70.8036 16.8005 69.1413 18.3134 66.202 18.3134C63.2627 18.3134 61.4317 16.9931 61.0217 14.6162V14.615Z" fill="#1F1F1F"/>
<path d="M57.3362 6.03094V7.71088H51.7927V6.03094H57.3362Z" fill="#1F1F1F"/>
<path d="M51.7926 7.71088V9.39081H49.7437V7.71088H51.7926Z" fill="#1F1F1F"/>
<path d="M51.385 11.9113V16.3451H49.3361V11.9113H51.385Z" fill="#1F1F1F"/>
<path d="M55.2872 16.3452V18.0251H51.385V16.3452H55.2872Z" fill="#1F1F1F"/>
<path d="M57.3362 14.6652V16.3452H55.2872V14.6652H57.3362Z" fill="#1F1F1F"/>
<path d="M57.9395 10.2313V11.9113H51.385V10.2313H57.9395Z" fill="#1F1F1F"/>
<path d="M59.3839 7.71204V18.0239H57.335V7.71088H59.3839V7.71204Z" fill="#1F1F1F"/>
<path d="M75.0725 18.0251H73.0248V2.00916H75.0725V18.0239V18.0251Z" fill="#1F1F1F"/>
<path d="M80.9511 6.01929V7.69922H77.1215V6.01929H80.9511Z" fill="#1F1F1F"/>
<path d="M77.1227 7.69922V9.37915H75.0737V7.69922H77.1227Z" fill="#1F1F1F"/>
<path d="M83 7.70039V18.024H80.951V7.69922H83V7.70039Z" fill="#1F1F1F"/>
<path d="M24.0835 0H0V24H24.0835V0Z" fill="#1F1F1F"/>
<path d="M14.455 9.61731V14.4259H9.62962V9.61731H4.80426V14.4259V19.2346H9.62962H14.455H19.2792V14.4259V9.61731H14.455Z" fill="white"/>
<path d="M14.455 4.80981H9.62964V9.61845H14.455V4.80981Z" fill="white"/>
</g>
<defs>
<clipPath id="clip0_8_829">
<rect width="83" height="24" fill="white"/>
</clipPath>
</defs>
</svg>
